<svg width="32" height="32" viewBox="0 0 32 32" fill="none" xmlns="http://www.w3.org/2000/svg">
<g id="vuesax/outline/flag-2">
<g id="flag-2">
<path id="Vector" d="M8.59766 30.3346C8.05099 30.3346 7.59766 29.8813 7.59766 29.3346L7.59766 2.66797C7.59766 2.1213 8.05099 1.66797 8.59766 1.66797C9.14432 1.66797 9.59766 2.1213 9.59766 2.66797L9.59766 29.3346C9.59766 29.8813 9.14432 30.3346 8.59766 30.3346Z" fill="url(#paint0_linear_3925_1758)"/>
<path id="Vector_2" d="M9.26543 23.6671C8.89209 23.6671 8.54543 23.4671 8.3721 23.1071C8.13209 22.6138 8.33209 22.0138 8.82543 21.7738L19.8921 16.3071C21.5188 15.4671 22.4388 14.4538 22.3988 13.5071C22.3588 12.5871 21.3721 11.6405 19.6788 10.9205L8.87876 6.25381C8.35876 6.02714 8.1321 5.44048 8.34543 4.93381C8.55876 4.42714 9.15876 4.18714 9.66543 4.41381L20.4654 9.08048C23.7988 10.4938 24.3588 12.4138 24.3988 13.4271C24.4654 15.2005 23.1854 16.8538 20.7988 18.0805L9.71876 23.5605C9.57209 23.6405 9.41209 23.6671 9.26543 23.6671Z" fill="url(#paint1_linear_3925_1758)"/>
</g>
</g>
<defs>
<linearGradient id="paint0_linear_3925_1758" x1="8.63102" y1="0.279847" x2="11.9123" y2="0.492268" gradientUnits="userSpaceOnUse">
<stop stop-color="#B0FF09"/>
<stop offset="1" stop-color="#05B8F1"/>
</linearGradient>
<linearGradient id="paint1_linear_3925_1758" x1="16.6026" y1="3.39167" x2="33.2234" y2="16.2597" gradientUnits="userSpaceOnUse">
<stop stop-color="#B0FF09"/>
<stop offset="1" stop-color="#05B8F1"/>
</linearGradient>
</defs>
</svg>
