<svg width="60" height="60" viewBox="0 0 60 60" fill="none" xmlns="http://www.w3.org/2000/svg">
<g clip-path="url(#clip0_3767_5522)">
<path d="M37.0132 0.910156H50.5462L31.8064 28.7607H18.2734L37.0132 0.910156Z" fill="url(#paint0_linear_3767_5522)"/>
<path d="M26.9195 30.9102L41.465 30.9102L22.7251 58.7607L8.17969 58.7607L26.9195 30.9102Z" fill="url(#paint1_linear_3767_5522)"/>
<path d="M51.3568 35.9977C55.0923 35.9977 57.0728 37.4518 57.0728 40.5605C57.0728 42.6915 55.7692 44.0202 53.8388 44.4213V44.7723C56.0449 45.0731 57.6745 46.1512 57.6745 48.8587C57.6745 51.9925 55.4683 53.5469 51.6576 53.5469H41.9555V35.9977H51.3568ZM46.5935 49.7863H50.8303C52.3095 49.7863 52.9613 49.3351 52.9613 48.1066C52.9613 46.8531 52.3095 46.4019 51.0309 46.4019H46.5935V49.7863ZM46.5935 42.9923H50.4041C51.7579 42.9923 52.3596 42.5411 52.3596 41.3377C52.3596 40.2095 51.8081 39.7583 50.5295 39.7583H46.5935V42.9923Z" fill="white"/>
<path d="M12.3171 3.3532C15.8269 3.3532 18.4092 5.03291 18.4092 8.44245C18.4092 10.8993 17.0303 12.3785 14.8241 12.8799V13.2309C16.1027 13.6571 16.9049 14.8103 17.8576 16.9914L19.7128 20.9023H14.4982L11.8909 14.8354H7.50362V20.9023H2.86563V3.3532H12.3171ZM7.50362 11.3506H11.6402C12.8937 11.3506 13.696 10.8241 13.696 9.2447C13.696 7.76556 12.8937 7.23908 11.6402 7.23908H7.50362V11.3506Z" fill="white"/>
</g>
<defs>
<linearGradient id="paint0_linear_3767_5522" x1="34.9482" y1="-0.438454" x2="51.5484" y2="-1.3699" gradientUnits="userSpaceOnUse">
<stop stop-color="#B0FF09"/>
<stop offset="1" stop-color="#05B8F1"/>
</linearGradient>
<linearGradient id="paint1_linear_3767_5522" x1="25.3776" y1="29.5616" x2="31.6024" y2="60.9648" gradientUnits="userSpaceOnUse">
<stop stop-color="#B0FF09"/>
<stop offset="1" stop-color="#05B8F1"/>
</linearGradient>
<clipPath id="clip0_3767_5522">
<rect width="58.1818" height="58.1818" fill="white" transform="translate(0.910156 0.910156)"/>
</clipPath>
</defs>
</svg>
