<svg width="32" height="32" viewBox="0 0 32 32" fill="none" xmlns="http://www.w3.org/2000/svg">
<g id="brand / Telegram">
<path id="Vector" d="M17.2057 9.89772C15.0566 10.8557 10.7602 12.8408 4.31836 15.8511C3.27234 16.2975 2.72355 16.7341 2.67383 17.1607C2.58912 17.8837 3.43256 18.1681 4.57802 18.5533C4.73455 18.6066 4.89661 18.6599 5.06235 18.7192C6.19124 19.1123 7.7087 19.5725 8.49689 19.5903C9.21327 19.6061 10.0125 19.29 10.8946 18.6422C16.9129 14.2828 20.0196 12.0804 20.2148 12.033C20.353 11.9994 20.5445 11.9559 20.6734 12.0804C20.8023 12.2028 20.7894 12.4359 20.7765 12.4991C20.6918 12.8803 17.388 16.177 15.6754 17.8837C15.1413 18.415 14.7638 18.7923 14.6864 18.8792C14.5133 19.0708 14.3365 19.2545 14.1671 19.4303C13.1174 20.5127 12.3329 21.3265 14.2113 22.6539C15.0873 23.2732 15.7932 23.7884 16.4925 24.2986L16.5556 24.3447C17.342 24.9195 18.1265 25.4923 19.143 26.2074C19.4009 26.3891 19.6476 26.5767 19.8889 26.7604C20.8041 27.4617 21.6273 28.0898 22.6439 27.991C23.2332 27.9318 23.8446 27.3372 24.154 25.5615C24.8851 21.3621 26.3252 12.268 26.6585 8.51899C26.6788 8.20772 26.6664 7.89499 26.6217 7.58667C26.5949 7.33766 26.4818 7.10853 26.3049 6.94472C26.0416 6.71361 25.6328 6.66423 25.4486 6.66818C24.618 6.68398 23.3437 7.16002 17.2057 9.89772Z" fill="white" fill-opacity="1"/>
</g>
</svg>
