<svg width="32" height="32" viewBox="0 0 32 32" fill="none" xmlns="http://www.w3.org/2000/svg">
<g id="brand / twitter">
<path id="coolicon" d="M26.66 8.91602C27.8553 8.20147 28.7496 7.07633 29.176 5.75068C28.0529 6.41709 26.8241 6.88652 25.5427 7.13868C23.7661 5.25939 20.9514 4.80205 18.6712 6.02222C16.3911 7.2424 15.21 9.838 15.788 12.3587C11.1875 12.1277 6.90131 9.95457 3.99602 6.38002C2.47981 8.99524 3.25462 12.3384 5.76669 14.02C4.8583 13.9908 3.97006 13.7449 3.17602 13.3027C3.17602 13.3267 3.17602 13.3507 3.17602 13.3747C3.17655 16.0989 5.09652 18.4455 7.76669 18.9853C6.92411 19.2146 6.0403 19.2483 5.18269 19.084C5.93362 21.4137 8.08076 23.0097 10.528 23.0573C8.50113 24.6482 5.99799 25.5109 3.42135 25.5067C2.96465 25.5073 2.5083 25.4811 2.05469 25.428C4.67121 27.1094 7.71651 28.0018 10.8267 27.9987C15.1537 28.0284 19.3121 26.3226 22.3717 23.2627C25.4313 20.2029 27.1368 16.0443 27.1067 11.7173C27.1067 11.4693 27.1009 11.2227 27.0894 10.9773C28.21 10.1675 29.1771 9.16422 29.9454 8.01468C28.9014 8.47743 27.794 8.78125 26.66 8.91602Z" fill="white"/>
</g>
</svg>
