<svg width="24" height="24" viewBox="0 0 24 24" fill="none" xmlns="http://www.w3.org/2000/svg">
<g id="vuesax/outline/verify">
<g id="verify">
<path id="Vector" d="M10.7886 15.1712C10.5886 15.1712 10.3986 15.0912 10.2586 14.9512L7.83859 12.5312C7.54859 12.2412 7.54859 11.7612 7.83859 11.4712C8.12859 11.1812 8.60859 11.1812 8.89859 11.4712L10.7886 13.3612L15.0886 9.06125C15.3786 8.77125 15.8586 8.77125 16.1486 9.06125C16.4386 9.35125 16.4386 9.83125 16.1486 10.1212L11.3186 14.9512C11.1786 15.0912 10.9886 15.1712 10.7886 15.1712Z" fill="url(#paint0_linear_3925_1768)"/>
<path id="Vector_2" d="M11.9989 22.75C11.3689 22.75 10.7389 22.54 10.2489 22.12L8.66891 20.76C8.50891 20.62 8.10891 20.48 7.89891 20.48H6.17891C4.69891 20.48 3.49891 19.28 3.49891 17.8V16.09C3.49891 15.88 3.35891 15.49 3.21891 15.33L1.86891 13.74C1.04891 12.77 1.04891 11.24 1.86891 10.27L3.21891 8.68C3.35891 8.52 3.49891 8.13 3.49891 7.92V6.2C3.49891 4.72 4.69891 3.52 6.17891 3.52H7.90891C8.11891 3.52 8.51891 3.37 8.67891 3.24L10.2589 1.88C11.2389 1.04 12.7689 1.04 13.7489 1.88L15.3289 3.24C15.4889 3.38 15.8889 3.52 16.0989 3.52H17.7989C19.2789 3.52 20.4789 4.72 20.4789 6.2V7.9C20.4789 8.11 20.6289 8.51 20.7689 8.67L22.1289 10.25C22.9689 11.23 22.9689 12.76 22.1289 13.74L20.7689 15.32C20.6289 15.48 20.4789 15.88 20.4789 16.09V17.79C20.4789 19.27 19.2789 20.47 17.7989 20.47H16.0989C15.8889 20.47 15.4889 20.62 15.3289 20.75L13.7489 22.11C13.2589 22.54 12.6289 22.75 11.9989 22.75ZM6.17891 5.02C5.52891 5.02 4.99891 5.55 4.99891 6.2V7.91C4.99891 8.48 4.72891 9.21 4.35891 9.64L3.00891 11.23C2.65891 11.64 2.65891 12.35 3.00891 12.76L4.35891 14.35C4.72891 14.79 4.99891 15.51 4.99891 16.08V17.79C4.99891 18.44 5.52891 18.97 6.17891 18.97H7.90891C8.48891 18.97 9.21891 19.24 9.65891 19.62L11.2389 20.98C11.6489 21.33 12.3689 21.33 12.7789 20.98L14.3589 19.62C14.7989 19.25 15.5289 18.97 16.1089 18.97H17.8089C18.4589 18.97 18.9889 18.44 18.9889 17.79V16.09C18.9889 15.51 19.2589 14.78 19.6389 14.34L20.9989 12.76C21.3489 12.35 21.3489 11.63 20.9989 11.22L19.6389 9.64C19.2589 9.2 18.9889 8.47 18.9889 7.89V6.2C18.9889 5.55 18.4589 5.02 17.8089 5.02H16.1089C15.5289 5.02 14.7989 4.75 14.3589 4.37L12.7789 3.01C12.3689 2.66 11.6489 2.66 11.2389 3.01L9.65891 4.38C9.21891 4.75 8.47891 5.02 7.90891 5.02H6.17891Z" fill="url(#paint1_linear_3925_1768)"/>
</g>
</g>
<defs>
<linearGradient id="paint0_linear_3925_1768" x1="12.1395" y1="8.53735" x2="17.5872" y2="15.5237" gradientUnits="userSpaceOnUse">
<stop stop-color="#B0FF09"/>
<stop offset="1" stop-color="#05B8F1"/>
</linearGradient>
<linearGradient id="paint1_linear_3925_1768" x1="12.3652" y1="0.208909" x2="31.3986" y2="17.8744" gradientUnits="userSpaceOnUse">
<stop stop-color="#B0FF09"/>
<stop offset="1" stop-color="#05B8F1"/>
</linearGradient>
</defs>
</svg>
