<svg width="24" height="24" viewBox="0 0 24 24" fill="none" xmlns="http://www.w3.org/2000/svg">
<g id="vuesax/outline/wallet">
<g id="wallet">
<path id="Vector" d="M17 22.75H7C3.56 22.75 1.25 20.44 1.25 17V12C1.25 8.92 3.15 6.69001 6.1 6.32001C6.38 6.28001 6.69 6.25 7 6.25H17C17.24 6.25 17.55 6.26 17.87 6.31C20.82 6.65 22.75 8.89 22.75 12V17C22.75 20.44 20.44 22.75 17 22.75ZM7 7.75C6.76 7.75 6.53 7.76999 6.3 7.79999C4.1 8.07999 2.75 9.68 2.75 12V17C2.75 19.58 4.42 21.25 7 21.25H17C19.58 21.25 21.25 19.58 21.25 17V12C21.25 9.66 19.88 8.05001 17.66 7.79001C17.42 7.75001 17.21 7.75 17 7.75H7Z" fill="url(#paint0_linear_3781_1724)"/>
<path id="Vector_2" d="M6.192 7.80751C5.952 7.80751 5.732 7.69751 5.582 7.49751C5.412 7.26751 5.392 6.96751 5.522 6.71751C5.692 6.37751 5.932 6.04751 6.242 5.74751L9.492 2.4875C11.152 0.8375 13.852 0.8375 15.512 2.4875L17.262 4.25752C18.002 4.98752 18.452 5.96752 18.502 7.00752C18.512 7.23752 18.422 7.4575 18.252 7.6075C18.082 7.7575 17.852 7.82752 17.632 7.78752C17.432 7.75752 17.222 7.74751 17.002 7.74751H7.002C6.762 7.74751 6.532 7.7675 6.302 7.7975C6.272 7.8075 6.232 7.80751 6.192 7.80751ZM7.862 6.24751H16.822C16.692 5.90751 16.482 5.59752 16.202 5.31752L14.442 3.53752C13.372 2.47752 11.622 2.47752 10.542 3.53752L7.862 6.24751Z" fill="url(#paint1_linear_3781_1724)"/>
<path id="Vector_3" d="M22 17.25H19C17.48 17.25 16.25 16.02 16.25 14.5C16.25 12.98 17.48 11.75 19 11.75H22C22.41 11.75 22.75 12.09 22.75 12.5C22.75 12.91 22.41 13.25 22 13.25H19C18.31 13.25 17.75 13.81 17.75 14.5C17.75 15.19 18.31 15.75 19 15.75H22C22.41 15.75 22.75 16.09 22.75 16.5C22.75 16.91 22.41 17.25 22 17.25Z" fill="url(#paint2_linear_3781_1724)"/>
</g>
</g>
<defs>
<linearGradient id="paint0_linear_3781_1724" x1="12.3587" y1="5.45102" x2="26.7462" y2="22.847" gradientUnits="userSpaceOnUse">
<stop stop-color="#B0FF09"/>
<stop offset="1" stop-color="#05B8F1"/>
</linearGradient>
<linearGradient id="paint1_linear_3781_1724" x1="12.1881" y1="0.932467" x2="17.0602" y2="9.93988" gradientUnits="userSpaceOnUse">
<stop stop-color="#B0FF09"/>
<stop offset="1" stop-color="#05B8F1"/>
</linearGradient>
<linearGradient id="paint2_linear_3781_1724" x1="19.6084" y1="11.4837" x2="24.4703" y2="16.8153" gradientUnits="userSpaceOnUse">
<stop stop-color="#B0FF09"/>
<stop offset="1" stop-color="#05B8F1"/>
</linearGradient>
</defs>
</svg>
